# xmcd
#
# Track frame offsets: 
#        150
#        20345
#        32864
#        49952
#        59673
#        80742
#        88896
#        112328
#        130178
#        145385
#        154956
#
# Disc length: 2344 seconds
#
# Revision: 0
# Processed by: cddbd v1.5.2PL0 Copyright (c) Steve Scherf et al.
# Submitted via: ExactAudioCopy v1.3
#
DISCID=a709260b
DTITLE=Steven De Bruyn - The Eternal Perhaps
DYEAR=2020
DGENRE=Blues
TTITLE0=Paradise Blues
TTITLE1=Maurice the Boss (cat)
TTITLE2=Aanspraak
TTITLE3=8 Wrap
TTITLE4=Sometimes
TTITLE5=Onderweg #2
TTITLE6=BXL Midi
TTITLE7=Our Dream
TTITLE8=Onder de Regen
TTITLE9=Ancient Memory
TTITLE10=Stevo Wonders
EXTD=
EXTT0=
EXTT1=
EXTT2=
EXTT3=
EXTT4=
EXTT5=
EXTT6=
EXTT7=
EXTT8=
EXTT9=
EXTT10=
PLAYORDER=
